Coordinates
version=1
nRows=49
nColumns=12
inDegrees=yes

Units are S.I. units (second, meters, Newtons, ...)
Angles are in degrees

endheader
time	SC_y	SC_z	SC_x	AC_y	AC_z	AC_x	GH_y	GH_z	GH_yy	EL_x	PS_y
       0.0              -28.95           13.3          3.623          63.55          6.886         -8.754          152.3          3.617          40.19          26.36          74.45
   0.03946              -28.95           13.3          3.625          63.55          6.886          -8.75          152.2          3.629           40.2          26.37          74.45
   0.07893              -28.95           13.3          3.627          63.55          6.886         -8.747          152.2          3.641          40.21          26.37          74.44
    0.1184              -28.95          13.29          3.629          63.54          6.886         -8.743          152.2          3.655          40.22          26.38          74.43
    0.1579              -28.95          13.29          3.631          63.54          6.886         -8.739          152.2          3.669          40.24          26.39          74.43
    0.1973              -28.96          13.29          3.633          63.54          6.886         -8.735          152.1          3.684          40.25          26.39          74.42
    0.2368              -28.96          13.29          3.636          63.53          6.886          -8.73          152.1          3.701          40.27           26.4          74.41
    0.2762              -28.96          13.29          3.638          63.53          6.886         -8.725          152.0          3.718          40.28          26.41           74.4
    0.3157              -28.96          13.28          3.641          63.52          6.886          -8.72          152.0          3.737           40.3          26.42          74.39
    0.3552              -28.97          13.28          3.644          63.52          6.887         -8.714          151.9          3.757          40.32          26.43          74.38
    0.3946              -28.97          13.28          3.648          63.51          6.887         -8.708          151.9          3.778          40.34          26.44          74.37
    0.4341              -28.97          13.28          3.651          63.51          6.887         -8.702          151.8          3.801          40.36          26.45          74.35
    0.4736              -28.97          13.27          3.655           63.5          6.887         -8.694          151.8          3.826          40.38          26.47          74.34
     0.513              -28.98          13.27          3.659          63.49          6.887         -8.687          151.7          3.853           40.4          26.48          74.32
    0.5525              -28.98          13.27          3.664          63.49          6.887         -8.679          151.6          3.882          40.43           26.5          74.31
     0.592              -28.99          13.26          3.669          63.48          6.888          -8.67          151.6          3.914          40.46          26.51          74.29
    0.6314              -28.99          13.26          3.674          63.47          6.888          -8.66          151.5          3.948          40.49          26.53          74.27
    0.6709               -29.0          13.25           3.68          63.46          6.888         -8.649          151.4          3.985          40.52          26.55          74.25
    0.7104               -29.0          13.25          3.686          63.45          6.889         -8.638          151.3          4.026          40.56          26.57          74.23
    0.7498              -29.01          13.24          3.693          63.44          6.889         -8.625          151.2          4.071           40.6          26.59           74.2
    0.7893              -29.01          13.24          3.701          63.43          6.889         -8.611          151.1           4.12          40.65          26.62          74.18
    0.8287              -29.02          13.23          3.709          63.41           6.89         -8.596          151.0          4.174           40.7          26.65          74.15
    0.8682              -29.03          13.22          3.718           63.4           6.89         -8.579          150.8          4.233          40.75          26.68          74.11
    0.9077              -29.04          13.21          3.729          63.38          6.891         -8.561          150.7          4.299          40.81          26.71          74.08
    0.9471              -29.05           13.2           3.74          63.36          6.891          -8.54          150.5          4.373          40.88          26.75          74.04
    0.9866              -29.06          13.19          3.753          63.34          6.892         -8.517          150.3          4.455          40.95          26.79          73.99
     1.026              -29.07          13.18          3.767          63.32          6.892         -8.491          150.1          4.547          41.04          26.84          73.94
     1.066              -29.08          13.17          3.783           63.3          6.893         -8.462          149.8           4.65          41.13          26.89          73.88
     1.105               -29.1          13.16          3.801          63.27          6.894         -8.429          149.6          4.767          41.24          26.95          73.82
     1.144              -29.11          13.14          3.822          63.23          6.895         -8.391          149.2          4.899          41.36          27.02          73.74
     1.184              -29.13          13.12          3.845           63.2          6.896         -8.348          148.9           5.05           41.5           27.1          73.66
     1.223              -29.16           13.1          3.872          63.15          6.897         -8.299          148.5          5.224          41.65          27.19          73.56
     1.263              -29.18          13.07          3.903           63.1          6.899         -8.243          148.0          5.424          41.84          27.29          73.45
     1.302              -29.21          13.04          3.939          63.04          6.901         -8.177          147.5          5.657          42.05          27.41          73.32
     1.342              -29.25          13.01          3.981          62.98          6.903           -8.1          146.8          5.929           42.3          27.55          73.17
     1.381              -29.29          12.97          4.031           62.9          6.905         -8.009          146.1           6.25          42.59          27.72           73.0
     1.421              -29.34          12.92           4.09           62.8          6.908         -7.901          145.2          6.632          42.94          27.91          72.78
      1.46               -29.4          12.86          4.161          62.69          6.911         -7.772          144.1          7.089          43.35          28.15          72.53
       1.5              -29.47           12.8          4.247          62.55          6.915         -7.615          142.8          7.643          43.86          28.43          72.22
     1.539              -29.56          12.71          4.352          62.38           6.92         -7.424          141.2          8.319          44.48          28.78          71.85
     1.579              -29.67          12.61          4.481          62.17          6.926         -7.188          139.2          9.153          45.24          29.21          71.39
     1.618               -29.8          12.48          4.642          61.92          6.934         -6.894          136.7          10.19          46.18          29.74          70.81
     1.657              -29.97          12.31          4.846          61.59          6.944         -6.523          133.6           11.5          47.38          30.42          70.09
     1.697              -30.19          12.11          5.104          61.17          6.956         -6.052          129.7          13.17           48.9          31.28          69.16
     1.736              -30.46          11.84          5.435          60.64          6.972         -5.449          124.7           15.3          50.84          32.37          67.98
     1.776              -30.82           11.5          5.859          59.96          6.992         -4.675          118.2          18.04          53.34          33.78          66.47
     1.815              -31.27          11.06          6.401          59.09          7.018         -3.687          109.9          21.54          56.52          35.58          64.53
     1.855              -31.84          10.51          7.082           58.0          7.051         -2.444          99.55          25.93          60.53          37.84           62.1
     1.894              -32.54          9.842          7.913          56.67           7.09        -0.9296          86.89          31.29          65.41           40.6          59.13
